<svg height="511pt" viewBox="-16 1 511 511.99937" width="511pt" xmlns="http://www.w3.org/2000/svg"><path d="m68.042969 237.722656-21.214844 21.214844c-5.859375 5.859375-5.859375 15.355469 0 21.214844s15.355469 5.859375 21.214844 0l21.214843-21.214844c5.859376-5.855469 5.859376-15.355469 0-21.214844-5.855468-5.855468-15.355468-5.855468-21.214843 0zm0 0"/><path d="m142.507812 326.992188c8.28125 0 15-6.71875 15-15.003907v-43c0-8.285156-6.71875-15-15-15-8.285156 0-15.003906 6.714844-15.003906 15v43c0 8.285157 6.71875 15.003907 15.003906 15.003907zm0 0"/><path d="m15.5 169.984375c-8.285156 0-15 6.714844-15 15s6.714844 15 15 15h41.9375c8.285156 0 15-6.714844 15-15s-6.714844-15-15-15zm0 0"/><path d="m315.332031 13.160156c-17.546875-17.546875-46.09375-17.546875-63.636719 0l-2.71875 2.71875c-12.9375-10.742187-30.707031-13.417968-46.40625-6.6875l-129.828124 55.640625c-4.574219 1.957031-7.878907 6.0625-8.820313 10.949219s.601563 9.925781 4.121094 13.445312l32.890625 32.886719c-19.25 29.105469-16.074219 68.785157 9.539062 94.398438 25.734375 25.734375 65.425782 28.699219 94.398438 9.539062l32.886718 32.890625c7.484376 7.484375 20.207032 5.070313 24.394532-4.699218l23.09375-53.886719 84.707031 84.703125-135.132813 136.9375h-26.308593v-15c0-8.285156-6.714844-15.003906-15-15.003906-8.285157 0-15 6.71875-15 15.003906v15h-15.003907c-24.8125 0-45 20.1875-45 45v30.003906c0 8.28125 6.714844 15 15 15h270.011719c8.285157 0 15-6.71875 15-15v-30.003906c0-24.8125-20.1875-45-45-45h-11.757812l103.617187-105.230469c8.804688-8.820313 13.144532-20.304687 13.144532-31.777344 0-11.777343-4.546876-23.179687-13.183594-31.816406l-143.953125-143.953125c.613281-10.496094-2.484375-20.953125-8.949219-29.53125l2.894531-2.890625c17.542969-17.546875 17.542969-46.09375 0-63.636719zm-21.214843 21.210938c5.867187 5.867187 5.867187 15.34375 0 21.210937l-2.574219 2.574219-21.207031-21.210938 2.570312-2.574218c5.867188-5.863282 15.34375-5.863282 21.210938 0zm-162.429688 160.925781c-13.828125-13.828125-16.75-34.488281-8.785156-51.210937l59.996094 59.992187c-16.726563 7.96875-37.382813 5.046875-51.210938-8.78125zm111.617188 26.761719-138.378907-138.378906 109.464844-46.914063c5.671875-2.429687 12.152344-1.179687 16.515625 3.179687l56.132812 56.132813c4.359376 4.359375 5.609376 10.84375 3.179688 16.515625zm54.671874-51.402344 12.726563-29.695312 103.425781 103.425781c-9.257812 4.4375-16.773437 11.953125-21.210937 21.210937zm150.542969 114.332031c0 8.203125-6.675781 15-15 15-8.269531 0-15-6.726562-15-15 0-8.269531 6.730469-15 15-15 8.332031 0 15 6.804688 15 15zm-60 182.007813v15h-240.011719v-15c0-8.269532 6.726563-15 15-15h210.007813c8.273437 0 15.003906 6.730468 15.003906 15zm-111.550781-45 115.984375-117.535156c4.496094 9.328124 12.117187 16.867187 21.488281 21.273437l-94.785156 96.261719zm0 0"/></svg>